<svg xmlns="http://www.w3.org/2000/svg" height="30" viewBox="0 0 25 30" width="25">
    <path d="m1.868 8.573c1.03 0 1.868.833 1.868 1.86v7.447c0 1.027-.837 1.86-1.868 1.86-1.03 0-1.868-.832-1.868-1.86v-7.446c0-1.027.837-1.86 1.868-1.86zm20.55 0c1.03 0 1.868.833 1.868 1.86v7.447c0 1.027-.837 1.86-1.868 1.86-1.032 0-1.87-.833-1.87-1.86v-7.446c0-1.027.838-1.86 1.87-1.86zm-17.748 14.89v-13.959h14.945v13.96h-1.868v4.655c0 1.028-.837 1.862-1.868 1.862-1.032 0-1.87-.834-1.87-1.862v-4.654h-3.735v4.654c0 1.028-.837 1.862-1.868 1.862-1.032 0-1.87-.834-1.87-1.862v-4.654h-1.866zm11.884-20.893.96-1.655c.13-.223.053-.507-.172-.636-.222-.13-.51-.054-.638.17l-.935 1.614c-1.075-.596-2.31-.937-3.627-.937-1.316 0-2.55.34-3.626.938l-.936-1.614c-.13-.223-.413-.3-.638-.17-.222.127-.3.41-.17.635l.96 1.656c-1.854 1.356-3.062 3.536-3.062 6.003h14.945c0-2.467-1.208-4.647-3.06-6.002zm-7.214 3.21c-.516 0-.933-.416-.933-.93 0-.515.417-.93.934-.93s.935.415.935.93c0 .514-.418.93-.934.93zm5.605 0c-.516 0-.934-.416-.934-.93 0-.515.42-.93.935-.93.517 0 .934.415.934.93 0 .514-.418.93-.935.93z"
          fill="#7fc736" fill-rule="evenodd"/>
</svg>
