<svg xmlns="http://www.w3.org/2000/svg" height="30" viewBox="0 0 26 30" width="26">
    <path d="m19.432 6.882c-2.57 0-3.933 1.302-5.952 1.275-2.02.027-3.383-1.275-5.952-1.275-2.045 0-4.642 1.275-5.82 3.136-2.178 3.4-1.968 7.095-1.05 10.92.996 4.067 4.51 9.062 7.29 9.062 2.28 0 3.303-1.25 5.532-1.25 2.228 0 3.225 1.25 5.48 1.25 2.57 0 5.637-4.28 6.95-8.08-2.52-1.008-4.223-3.532-4.223-6.216 0-2.657 1.338-4.703 3.383-5.872-1.26-1.728-3.67-2.95-5.638-2.95zm-.682-6.882c-3.697.4-6.45 3.534-6.214 7.095 3.697-.372 6.424-3.535 6.214-7.095z"
          fill="#a6b1b7" fill-rule="evenodd"/>
</svg>
